<svg xmlns="http://www.w3.org/2000/svg" xmlns:xlink="http://www.w3.org/1999/xlink" viewBox="0 0 236.93 238.34"><defs><style>.cls-1,.cls-2,.cls-3{stroke:#000;stroke-miterlimit:10;}.cls-1{stroke-width:7px;fill:url(#Unbenannter_Verlauf_13);}.cls-2{fill:none;}.cls-2,.cls-3{stroke-width:13px;}.cls-3{fill:#fff;}</style><linearGradient id="Unbenannter_Verlauf_13" x1="31.07" y1="73.78" x2="164.45" y2="207.16" gradientUnits="userSpaceOnUse"><stop offset="0" stop-color="#ff7623"/><stop offset="0.15" stop-color="#ff7827"/><stop offset="0.29" stop-color="#fe7f32"/><stop offset="0.43" stop-color="#fd8a45"/><stop offset="0.56" stop-color="#fb9b60"/><stop offset="0.69" stop-color="#f9af82"/><stop offset="0.82" stop-color="#f6c9ad"/><stop offset="0.95" stop-color="#f3e6de"/><stop offset="1" stop-color="#f2f2f2"/></linearGradient></defs><title>biggrin</title><g id="Ebene_3" data-name="Ebene 3"><ellipse class="cls-1" cx="97.76" cy="140.47" rx="94.26" ry="94.36"/><path d="M72.71,1.53,183.93,28l53.36,105.55-4.38-1.47-2.57,52.14L216,182.43l11.85-52.08-22.63-8-9.66,12.51s-58-14.38-117.07-89.41L89.19,31.27Z" transform="translate(-0.36 -1.53)"/><path class="cls-2" d="M46.75,118.52c.23-10.58,8.87-20,19.44-20.25s20.25,10.53,20.25,20.25" transform="translate(-0.36 -1.53)"/><path class="cls-2" d="M151.24,118.52c-.22-10.58-8.86-20-19.44-20.25s-20.25,10.53-20.25,20.25" transform="translate(-0.36 -1.53)"/><path class="cls-3" d="M33.79,137.15s-.81,78.57,64.8,78.57c64.8,0,65.61-78.57,65.61-78.57-2.43,0-17.82,26.73-64.8,26.73C55.66,163.88,34.6,137.15,33.79,137.15Z" transform="translate(-0.36 -1.53)"/></g></svg>