<svg xmlns="http://www.w3.org/2000/svg" xmlns:xlink="http://www.w3.org/1999/xlink" viewBox="0 0 236.93 238.34"><defs><style>.cls-1,.cls-2,.cls-5{stroke:#000;stroke-miterlimit:10;}.cls-1{stroke-width:7px;fill:url(#Unbenannter_Verlauf_13);}.cls-3{fill:url(#Unbenannter_Verlauf_4);}.cls-4{fill:url(#Unbenannter_Verlauf_4-2);}.cls-5{fill:none;stroke-width:13px;}</style><linearGradient id="Unbenannter_Verlauf_13" x1="31.07" y1="73.78" x2="164.45" y2="207.16" gradientUnits="userSpaceOnUse"><stop offset="0" stop-color="#ff7623"/><stop offset="0.15" stop-color="#ff7827"/><stop offset="0.29" stop-color="#fe7f32"/><stop offset="0.43" stop-color="#fd8a45"/><stop offset="0.56" stop-color="#fb9b60"/><stop offset="0.69" stop-color="#f9af82"/><stop offset="0.82" stop-color="#f6c9ad"/><stop offset="0.95" stop-color="#f3e6de"/><stop offset="1" stop-color="#f2f2f2"/></linearGradient><radialGradient id="Unbenannter_Verlauf_4" cx="87.78" cy="149.68" r="14.67" gradientTransform="translate(-165.91 -169.65) scale(2.41 2.25)" gradientUnits="userSpaceOnUse"><stop offset="0.34" stop-color="#ff2f15"/><stop offset="0.42" stop-color="#ff3219" stop-opacity="0.98"/><stop offset="0.5" stop-color="#ff3c24" stop-opacity="0.94"/><stop offset="0.58" stop-color="#ff4d37" stop-opacity="0.86"/><stop offset="0.67" stop-color="#ff6551" stop-opacity="0.74"/><stop offset="0.75" stop-color="#ff8373" stop-opacity="0.6"/><stop offset="0.84" stop-color="#ffa89d" stop-opacity="0.42"/><stop offset="0.92" stop-color="#ffd3cd" stop-opacity="0.21"/><stop offset="1" stop-color="#fff" stop-opacity="0"/></radialGradient><radialGradient id="Unbenannter_Verlauf_4-2" cx="132.21" cy="149.32" r="14.67" xlink:href="#Unbenannter_Verlauf_4"/></defs><title>f_blush</title><g id="Ebene_3" data-name="Ebene 3"><ellipse class="cls-1" cx="97.76" cy="140.47" rx="94.26" ry="94.36"/><path d="M72.71,1.53,183.93,28l53.36,105.55-4.38-1.47-2.57,52.13L216,182.43l11.85-52.09-22.63-8-9.66,12.5s-58-14.38-117.07-89.41L89.19,31.27Z" transform="translate(-0.36 -1.53)"/><circle class="cls-2" cx="130.66" cy="116.29" r="12.96"/><circle class="cls-2" cx="65.86" cy="116.29" r="12.96"/><ellipse class="cls-3" cx="45.31" cy="167.12" rx="35.3" ry="33.01"/><ellipse class="cls-4" cx="152.23" cy="166.31" rx="35.3" ry="33.01"/><path class="cls-5" d="M130.61,216.23c-11,4-49,7.08-61.56-22.68" transform="translate(-0.36 -1.53)"/></g></svg>