<svg xmlns="http://www.w3.org/2000/svg" xmlns:xlink="http://www.w3.org/1999/xlink" viewBox="0 0 236.93 238.34"><defs><style>.cls-1,.cls-2,.cls-5{stroke:#000;}.cls-1,.cls-2,.cls-3,.cls-4,.cls-5{stroke-miterlimit:10;}.cls-1{stroke-width:7px;fill:url(#Unbenannter_Verlauf_13);}.cls-3{fill:#e20000;}.cls-3,.cls-4{stroke:#e20000;}.cls-3,.cls-4,.cls-5{stroke-width:13px;}.cls-4{fill:#fff;}.cls-5{fill:none;}.cls-6{fill:url(#Unbenannter_Verlauf_17);}</style><linearGradient id="Unbenannter_Verlauf_13" x1="31.07" y1="73.78" x2="164.45" y2="207.16" gradientUnits="userSpaceOnUse"><stop offset="0" stop-color="#ff7623"/><stop offset="0.15" stop-color="#ff7827"/><stop offset="0.29" stop-color="#fe7f32"/><stop offset="0.43" stop-color="#fd8a45"/><stop offset="0.56" stop-color="#fb9b60"/><stop offset="0.69" stop-color="#f9af82"/><stop offset="0.82" stop-color="#f6c9ad"/><stop offset="0.95" stop-color="#f3e6de"/><stop offset="1" stop-color="#f2f2f2"/></linearGradient><radialGradient id="Unbenannter_Verlauf_17" cx="109.56" cy="146.11" r="15.64" gradientTransform="translate(-165.91 -169.65) scale(2.41 2.25)" gradientUnits="userSpaceOnUse"><stop offset="0.2" stop-color="#c1272d"/><stop offset="0.28" stop-color="#c5282b"/><stop offset="0.36" stop-color="#d22926"/><stop offset="0.44" stop-color="#e82c1e"/><stop offset="0.51" stop-color="#ff2f15"/><stop offset="0.58" stop-color="#ff3218" stop-opacity="0.99"/><stop offset="0.64" stop-color="#ff3b22" stop-opacity="0.94"/><stop offset="0.7" stop-color="#ff4933" stop-opacity="0.87"/><stop offset="0.76" stop-color="#ff5e4a" stop-opacity="0.77"/><stop offset="0.82" stop-color="#ff7968" stop-opacity="0.65"/><stop offset="0.87" stop-color="#ff998d" stop-opacity="0.49"/><stop offset="0.93" stop-color="#ffc0b8" stop-opacity="0.3"/><stop offset="0.98" stop-color="#ffece9" stop-opacity="0.09"/><stop offset="1" stop-color="#fff" stop-opacity="0"/></radialGradient></defs><title>f_clown</title><g id="Ebene_3" data-name="Ebene 3"><ellipse class="cls-1" cx="97.76" cy="140.47" rx="94.26" ry="94.36"/><circle class="cls-2" cx="130.66" cy="116.29" r="12.96"/><circle class="cls-2" cx="65.86" cy="116.29" r="12.96"/><path class="cls-3" d="M123.18,92.4c-.82.66-6.08,39.17,10.94,42,14.45,2.37,40.93-5.58,40.5-6.48S151.3,108.12,139,102C130.88,97.91,124,91.78,123.18,92.4Z" transform="translate(-0.36 -1.53)"/><path d="M72.71,1.53,183.93,28l53.36,105.55-4.38-1.47-2.57,52.13L216,182.43l11.85-52.09-22.63-8-9.66,12.5s-58-14.38-117.07-89.41L89.19,31.27Z" transform="translate(-0.36 -1.53)"/><path class="cls-3" d="M73.59,93.21c.82.66,6.08,39.17-10.93,42-14.45,2.37-40.93-5.58-40.5-6.48s23.32-19.76,35.64-25.92C65.9,98.72,72.82,92.59,73.59,93.21Z" transform="translate(-0.36 -1.53)"/><path class="cls-4" d="M42.35,167.3s-9.72,49.41,55.89,49.41c64.8,0,53.46-47.79,53.46-47.79-2.43,0-22.68,30-55.08,30C65.58,198.89,43.16,167.3,42.35,167.3Z" transform="translate(-0.36 -1.53)"/><path class="cls-5" d="M44.61,174.46c3.46,20.19,25.32,35,51.84,34.83,27.07-.16,48.54-14.68,51.84-34.83" transform="translate(-0.36 -1.53)"/><circle class="cls-2" cx="66.12" cy="120.28" r="12.96"/><ellipse class="cls-6" cx="97.71" cy="159.11" rx="37.63" ry="35.18"/><circle class="cls-2" cx="130.11" cy="119.47" r="12.96"/></g></svg>