<svg xmlns="http://www.w3.org/2000/svg" xmlns:xlink="http://www.w3.org/1999/xlink" viewBox="0 0 236.93 238.34"><defs><style>.cls-1,.cls-2,.cls-3,.cls-4{stroke:#000;stroke-miterlimit:10;}.cls-1{stroke-width:7px;fill:url(#Unbenannter_Verlauf_13);}.cls-3{fill:#fff;stroke-width:9px;}.cls-4{fill:none;stroke-width:14px;}</style><linearGradient id="Unbenannter_Verlauf_13" x1="31.07" y1="73.78" x2="164.45" y2="207.16" gradientUnits="userSpaceOnUse"><stop offset="0" stop-color="#ff7623"/><stop offset="0.15" stop-color="#ff7827"/><stop offset="0.29" stop-color="#fe7f32"/><stop offset="0.43" stop-color="#fd8a45"/><stop offset="0.56" stop-color="#fb9b60"/><stop offset="0.69" stop-color="#f9af82"/><stop offset="0.82" stop-color="#f6c9ad"/><stop offset="0.95" stop-color="#f3e6de"/><stop offset="1" stop-color="#f2f2f2"/></linearGradient></defs><title>f_cool</title><g id="Ebene_3" data-name="Ebene 3"><ellipse class="cls-1" cx="97.76" cy="140.47" rx="94.26" ry="94.36"/><circle class="cls-2" cx="130.66" cy="116.29" r="12.96"/><path d="M72.71,1.53,183.93,28l53.36,105.55-4.38-1.47-2.57,52.13L216,182.43l11.85-52.09-22.63-8-9.66,12.5s-58-14.38-117.07-89.41L89.19,31.27Z" transform="translate(-0.36 -1.53)"/><path class="cls-3" d="M57.1,175.93s-3.24,41.31,40.5,41.31c38.88,0,46.17-40.5,46.17-40.5-2.43,0,1.62,12.15-45.36,12.15C54.67,188.89,57.91,175.93,57.1,175.93Z" transform="translate(-0.36 -1.53)"/><circle class="cls-2" cx="132.63" cy="130.46" r="27.84"/><circle class="cls-2" cx="62.24" cy="130.46" r="27.84"/><line class="cls-4" x1="87.92" y1="127.02" x2="108.17" y2="127.02"/><line class="cls-4" x1="151.91" y1="127.02" x2="188.36" y2="127.02"/><line class="cls-4" x1="6.92" y1="125.4" x2="48.23" y2="125.4"/></g></svg>