<svg xmlns="http://www.w3.org/2000/svg" xmlns:xlink="http://www.w3.org/1999/xlink" viewBox="0 0 236.93 238.34"><defs><style>.cls-1,.cls-3{stroke:#000;stroke-miterlimit:10;}.cls-1{stroke-width:7px;fill:url(#Unbenannter_Verlauf_25);}.cls-2{font-size:54.29px;font-family:Arial-BoldMT, Arial;font-weight:700;}.cls-3{fill:none;stroke-width:13px;}.cls-4{fill:url(#Unbenannter_Verlauf_7);}</style><linearGradient id="Unbenannter_Verlauf_25" x1="31.07" y1="73.78" x2="164.45" y2="207.16" gradientUnits="userSpaceOnUse"><stop offset="0" stop-color="#95ab9c"/><stop offset="0.22" stop-color="#99ae9f"/><stop offset="0.42" stop-color="#a4b7aa"/><stop offset="0.62" stop-color="#b7c5bc"/><stop offset="0.82" stop-color="#d2d9d4"/><stop offset="1" stop-color="#f2f2f2"/></linearGradient><linearGradient id="Unbenannter_Verlauf_7" x1="116.7" y1="232.17" x2="152.15" y2="170.76" gradientTransform="matrix(-1, 0, 0, 1, 241.13, 0)" gradientUnits="userSpaceOnUse"><stop offset="0" stop-color="#aa1700"/><stop offset="1"/></linearGradient></defs><title>f_dead</title><g id="Ebene_3" data-name="Ebene 3"><ellipse class="cls-1" cx="97.76" cy="140.47" rx="94.26" ry="94.36"/><path d="M72.71,1.53,183.93,28l53.36,105.55-4.38-1.47-2.57,52.13L216,182.43l11.85-52.09-22.63-8-9.66,12.5s-58-14.38-117.07-89.41L89.19,31.27Z" transform="translate(-0.36 -1.53)"/><text class="cls-2" transform="translate(54.9 136.91)">X</text><text class="cls-2" transform="translate(110.79 136.91)">X</text><path class="cls-3" d="M47.16,201.81c3.46-26.3,25.32-31.59,51.84-31.59s48.38,5.29,51.84,31.59" transform="translate(-0.36 -1.53)"/><path class="cls-4" d="M100.72,169.41c12.84-3.73,40.16,41.56,33.21,56.7-2.32,5-25,2.7-29.16,3.24-14.11,1.82-21.83-38.8-20.25-55.89C84.61,172.54,93.26,171.58,100.72,169.41Z" transform="translate(-0.36 -1.53)"/></g></svg>