<svg xmlns="http://www.w3.org/2000/svg" xmlns:xlink="http://www.w3.org/1999/xlink" viewBox="0 0 236.93 238.34"><defs><style>.cls-1,.cls-2,.cls-3,.cls-4,.cls-5{stroke:#000;stroke-miterlimit:10;}.cls-1{stroke-width:7px;fill:url(#Unbenannter_Verlauf_30);}.cls-3{fill:#e63100;stroke-width:12px;}.cls-4{fill:none;stroke-width:13px;}.cls-5{stroke-width:5px;}</style><linearGradient id="Unbenannter_Verlauf_30" x1="31.07" y1="73.78" x2="164.45" y2="207.16" gradientUnits="userSpaceOnUse"><stop offset="0" stop-color="#1a1a1a"/><stop offset="0.16" stop-color="#1e1a1a"/><stop offset="0.31" stop-color="#291b1c"/><stop offset="0.46" stop-color="#3c1d1e"/><stop offset="0.61" stop-color="#571f21"/><stop offset="0.75" stop-color="#792125"/><stop offset="0.89" stop-color="#a3252a"/><stop offset="0.98" stop-color="#c1272d"/></linearGradient></defs><title>f_evil</title><g id="Ebene_3" data-name="Ebene 3"><ellipse class="cls-1" cx="97.76" cy="140.47" rx="94.26" ry="94.36"/><path d="M72.71,1.53,183.93,28l53.36,105.55-4.38-1.47-2.57,52.13L216,182.43l11.85-52.09-22.63-8-9.66,12.5s-58-14.38-117.07-89.41L89.19,31.27Z" transform="translate(-0.36 -1.53)"/><circle class="cls-2" cx="121.56" cy="115.77" r="12.96"/><ellipse class="cls-3" cx="130.5" cy="113.08" rx="21.88" ry="13.77"/><ellipse class="cls-3" cx="71" cy="113.08" rx="21.88" ry="13.77"/><path class="cls-4" d="M59.16,173.73c6.88,25.51,26.73,20.68,47.39,20.66,26.34,0,26.32-2,33.61-20.65" transform="translate(-0.36 -1.53)"/><path class="cls-5" d="M107.36,106.91c-.82-.66,4-16.65,21.06-19.44,14.45-2.37,36.88-3.33,36.45-2.43-1,2-15.83,7.86-36.45,11.34C111.87,99.17,108.12,107.53,107.36,106.91Z" transform="translate(-0.36 -1.53)"/><path class="cls-5" d="M96.75,106.91c.82-.66-4-16.65-21.06-19.44C61.24,85.1,38.81,84.13,39.24,85s22.87,9.05,36.45,11.34C92.24,99.17,96,107.53,96.75,106.91Z" transform="translate(-0.36 -1.53)"/><path class="cls-5" d="M167.61,73.29c-.82-.66,5.36-8.47,16.68-21.47,6-6.88,10.48-7.79,10-6.89s-14.48,19.44-16.2,38.88C177.71,88.64,168.37,73.91,167.61,73.29Z" transform="translate(-0.36 -1.53)"/><path class="cls-5" d="M33.1,72.48C33.92,71.82,27.75,64,16.42,51c-6-6.89-10.48-7.79-10-6.89S20.86,63.57,22.57,83C23,87.83,32.34,73.1,33.1,72.48Z" transform="translate(-0.36 -1.53)"/></g></svg>