<svg xmlns="http://www.w3.org/2000/svg" xmlns:xlink="http://www.w3.org/1999/xlink" viewBox="0 0 236.93 238.34"><defs><style>.cls-1,.cls-2,.cls-3,.cls-4{stroke:#000;}.cls-1,.cls-2,.cls-3{stroke-miterlimit:10;}.cls-1{stroke-width:7px;fill:url(#Unbenannter_Verlauf_13);}.cls-3{stroke-width:5px;}.cls-4{fill:url(#Unbenannter_Verlauf_26);}</style><linearGradient id="Unbenannter_Verlauf_13" x1="31.07" y1="73.78" x2="164.45" y2="207.16" gradientUnits="userSpaceOnUse"><stop offset="0" stop-color="#ff7623"/><stop offset="0.15" stop-color="#ff7827"/><stop offset="0.29" stop-color="#fe7f32"/><stop offset="0.43" stop-color="#fd8a45"/><stop offset="0.56" stop-color="#fb9b60"/><stop offset="0.69" stop-color="#f9af82"/><stop offset="0.82" stop-color="#f6c9ad"/><stop offset="0.95" stop-color="#f3e6de"/><stop offset="1" stop-color="#f2f2f2"/></linearGradient><radialGradient id="Unbenannter_Verlauf_26" cx="87.54" cy="176.21" r="32.91" gradientTransform="translate(0 88.1) scale(1 0.5)" gradientUnits="userSpaceOnUse"><stop offset="0"/><stop offset="0.05" stop-color="#1e0715"/><stop offset="0.15" stop-color="#521238"/><stop offset="0.26" stop-color="#811d57"/><stop offset="0.37" stop-color="#a82571"/><stop offset="0.48" stop-color="#c72d86"/><stop offset="0.6" stop-color="#e03297"/><stop offset="0.72" stop-color="#f136a3"/><stop offset="0.85" stop-color="#fc38aa"/><stop offset="1" stop-color="#ff39ac"/></radialGradient></defs><title>f_kiss</title><g id="Ebene_3" data-name="Ebene 3"><ellipse class="cls-1" cx="97.76" cy="140.47" rx="94.26" ry="94.36"/><path d="M72.71,1.53,183.93,28l53.36,105.55-4.38-1.47-2.57,52.13L216,182.43l11.85-52.09-22.63-8-9.66,12.5s-58-14.38-117.07-89.41L89.19,31.27Z" transform="translate(-0.36 -1.53)"/><circle class="cls-2" cx="121.56" cy="115.77" r="12.96"/><circle class="cls-2" cx="122.09" cy="116.34" r="12.96"/><path class="cls-3" d="M124.88,95.75c-.82.66-8.35,12.18,7.29,19.44,10.13,4.7,15-4.77,14.58-5.67s-8.5,5.51-14.58-.81C127.13,103.46,125.65,95.13,124.88,95.75Z" transform="translate(-0.36 -1.53)"/><circle class="cls-2" cx="57.71" cy="115.93" r="12.96"/><path class="cls-3" d="M55.64,95.34c.82.66,8.35,12.18-7.29,19.44-10.12,4.7-15-4.77-14.58-5.67s8.51,5.51,14.58-.81C53.39,103.06,54.88,94.72,55.64,95.34Z" transform="translate(-0.36 -1.53)"/><path class="cls-4" d="M87,197.65c-5.36,0-11.08,3.48-17.2-1.1S62.12,186.91,56,181.33c-1.7-1.55-6.5-11.09-9.07-12,5.18-2.85,9.65-7.81,11.65-9.31,5.57-4.15,10.26-6.51,14.23-6.49,3.14,0,6.64,4.39,14.24,4.39s11.09-4.37,14.24-4.39c4,0,8.66,3.15,14.23,7.3a116.58,116.58,0,0,0,12.65,8.5c-2.57.95-8.36,10.48-10.07,12-6.13,5.58-7.65,10.56-13.85,15.21s-12,1.1-17.2,1.1Z" transform="translate(-0.36 -1.53)"/></g></svg>