<svg xmlns="http://www.w3.org/2000/svg" xmlns:xlink="http://www.w3.org/1999/xlink" viewBox="0 0 236.93 238.34"><defs><style>.cls-1,.cls-2,.cls-3,.cls-4{stroke:#000;stroke-miterlimit:10;}.cls-1{stroke-width:7px;fill:url(#Unbenannter_Verlauf_13);}.cls-3{stroke-width:5px;}.cls-4{stroke-width:2px;}</style><linearGradient id="Unbenannter_Verlauf_13" x1="31.07" y1="73.78" x2="164.45" y2="207.16" gradientUnits="userSpaceOnUse"><stop offset="0" stop-color="#ff7623"/><stop offset="0.15" stop-color="#ff7827"/><stop offset="0.29" stop-color="#fe7f32"/><stop offset="0.43" stop-color="#fd8a45"/><stop offset="0.56" stop-color="#fb9b60"/><stop offset="0.69" stop-color="#f9af82"/><stop offset="0.82" stop-color="#f6c9ad"/><stop offset="0.95" stop-color="#f3e6de"/><stop offset="1" stop-color="#f2f2f2"/></linearGradient></defs><title>mixed</title><g id="Ebene_3" data-name="Ebene 3"><ellipse class="cls-1" cx="97.76" cy="140.47" rx="94.26" ry="94.36"/><path d="M72.71,1.53,183.93,28l53.36,105.55-4.38-1.47-2.57,52.14L216,182.43l11.85-52.08-22.63-8-9.66,12.51s-58-14.38-117.07-89.41L89.19,31.27Z" transform="translate(-0.36 -1.53)"/><circle class="cls-2" cx="121.56" cy="115.77" r="12.96"/><path class="cls-3" d="M40.11,126.2c-.82-.66,7.29-28,24.3-30.78,14.45-2.37,22.3,2.34,21.87,3.24S78,102,64.41,104.33C47.86,107.12,40.88,126.82,40.11,126.2Z" transform="translate(-0.36 -1.53)"/><circle class="cls-2" cx="54.73" cy="122.65" r="12.96"/><path class="cls-4" d="M47,158.2c-6.25-5.12-5.84,17.63-3.24,18.63,5.27,2,49.82,19.84,68.85,33.21,5.36,3.76,14.64-15.71,8.1-17.82C94.38,183.71,51.45,161.84,47,158.2Z" transform="translate(-0.36 -1.53)"/></g></svg>