<svg xmlns="http://www.w3.org/2000/svg" xmlns:xlink="http://www.w3.org/1999/xlink" viewBox="0 0 259.75 261.15"><defs><style>.cls-1,.cls-2,.cls-3{stroke:#000;stroke-miterlimit:10;}.cls-1{stroke-width:7px;fill:url(#Unbenannter_Verlauf_12);}.cls-2{stroke-width:9px;}.cls-3{fill:none;stroke-width:13px;}.cls-4{fill:url(#Unbenannter_Verlauf_13);}.cls-5{fill:url(#Unbenannter_Verlauf_13-2);}</style><linearGradient id="Unbenannter_Verlauf_12" x1="37.54" y1="58.82" x2="202.21" y2="223.48" gradientUnits="userSpaceOnUse"><stop offset="0" stop-color="#d1d1d1"/><stop offset="0.44" stop-color="#cfcfcf"/><stop offset="0.6" stop-color="#c8c8c8"/><stop offset="0.72" stop-color="#bdbdbd"/><stop offset="0.81" stop-color="#acacac"/><stop offset="0.89" stop-color="#969696"/><stop offset="0.96" stop-color="#7b7b7b"/><stop offset="1" stop-color="#666"/></linearGradient><radialGradient id="Unbenannter_Verlauf_13" cx="188.97" cy="150.36" r="19.53" gradientTransform="translate(-32.37 -27.35) scale(1.15 1.27)" gradientUnits="userSpaceOnUse"><stop offset="0.22" stop-color="#ff0"/><stop offset="0.32" stop-color="#ff0" stop-opacity="0.98"/><stop offset="0.42" stop-color="#ff0" stop-opacity="0.94"/><stop offset="0.52" stop-color="#ff0" stop-opacity="0.86"/><stop offset="0.61" stop-color="#ff0" stop-opacity="0.74"/><stop offset="0.71" stop-color="#ff0" stop-opacity="0.6"/><stop offset="0.81" stop-color="#ff0" stop-opacity="0.42"/><stop offset="0.91" stop-color="#ff0" stop-opacity="0.22"/><stop offset="1" stop-color="#ff0" stop-opacity="0"/></radialGradient><radialGradient id="Unbenannter_Verlauf_13-2" cx="209.24" cy="76.17" r="28.16" gradientTransform="translate(-130.49 -100.33) scale(1.63 2.03)" xlink:href="#Unbenannter_Verlauf_13"/></defs><title>sleepy</title><g id="Ebene_3" data-name="Ebene 3"><ellipse class="cls-1" cx="119.88" cy="141.15" rx="116.38" ry="116.5"/><path class="cls-2" d="M53,107c-1-.81,5-17.56,26-21,17.84-2.93,24.53,16.88,24,18S95.77,88.17,79,91C58.57,94.44,54,107.77,53,107Z" transform="translate(-0.25 20.15)"/><path class="cls-2" d="M184.92,106c1-.81-5-17.56-26-21-17.83-2.93-24.52,16.88-24,18s7.24-15.83,24-13C179.35,93.44,184,106.77,184.92,106Z" transform="translate(-0.25 20.15)"/><line class="cls-3" x1="80.25" y1="186.65" x2="159.25" y2="186.65"/><circle class="cls-4" cx="184.25" cy="163.65" r="23.5"/><ellipse class="cls-5" cx="211.44" cy="54.07" rx="48.31" ry="54.07"/></g></svg>