<svg xmlns="http://www.w3.org/2000/svg" xmlns:xlink="http://www.w3.org/1999/xlink" viewBox="0 0 236.93 238.34"><defs><style>.cls-1,.cls-2,.cls-3,.cls-4{stroke:#000;stroke-miterlimit:10;}.cls-1{stroke-width:7px;fill:url(#Unbenannter_Verlauf_13);}.cls-2{fill:#fff;stroke-width:10px;}.cls-4{stroke-width:5px;}</style><linearGradient id="Unbenannter_Verlauf_13" x1="31.07" y1="73.78" x2="164.45" y2="207.16" gradientUnits="userSpaceOnUse"><stop offset="0" stop-color="#ff7623"/><stop offset="0.15" stop-color="#ff7827"/><stop offset="0.29" stop-color="#fe7f32"/><stop offset="0.43" stop-color="#fd8a45"/><stop offset="0.56" stop-color="#fb9b60"/><stop offset="0.69" stop-color="#f9af82"/><stop offset="0.82" stop-color="#f6c9ad"/><stop offset="0.95" stop-color="#f3e6de"/><stop offset="1" stop-color="#f2f2f2"/></linearGradient></defs><title>thoughtful</title><g id="Ebene_3" data-name="Ebene 3"><ellipse class="cls-1" cx="97.76" cy="140.47" rx="94.26" ry="94.36"/><path d="M72.71,1.53,183.93,28l53.36,105.55-4.38-1.47-2.57,52.14L216,182.43l11.85-52.08-22.63-8-9.66,12.51s-58-14.38-117.07-89.41L89.19,31.27Z" transform="translate(-0.36 -1.53)"/><ellipse class="cls-2" cx="65.23" cy="143.53" rx="21.87" ry="27.54"/><circle class="cls-3" cx="59.16" cy="133.81" r="12.96"/><ellipse class="cls-2" cx="130.03" cy="142.31" rx="21.87" ry="27.54"/><circle class="cls-3" cx="124.36" cy="131.78" r="12.96"/><path class="cls-4" d="M104.47,110.63c-.81-.66,7.29-28,24.3-30.78,14.45-2.37,22.3,2.33,21.87,3.24s-8.29,3.38-21.87,5.67C112.23,91.55,105.24,111.25,104.47,110.63Z" transform="translate(-0.36 -1.53)"/><path class="cls-4" d="M89.85,112.25c.82-.66-7.29-28-24.3-30.78C51.11,79.1,43.26,83.8,43.68,84.71S52,88.09,65.55,90.38C82.1,93.17,89.09,112.87,89.85,112.25Z" transform="translate(-0.36 -1.53)"/><path class="cls-4" d="M76.53,214.71c-.82.41,21-.78,38.07.81,20.3,1.9,24.54-21.68,23.89-22.25-.48-.43-9.1,12.49-22.68,11.08C99.27,202.63,77.3,214.33,76.53,214.71Z" transform="translate(-0.36 -1.53)"/></g></svg>