<svg xmlns="http://www.w3.org/2000/svg" xmlns:xlink="http://www.w3.org/1999/xlink" viewBox="0 0 236.93 238.34"><defs><style>.cls-1,.cls-2,.cls-3,.cls-4{stroke:#000;stroke-miterlimit:10;}.cls-1{stroke-width:7px;fill:url(#Unbenannter_Verlauf_13);}.cls-3{fill:none;stroke-width:13px;}.cls-4{stroke-width:5px;}</style><linearGradient id="Unbenannter_Verlauf_13" x1="31.07" y1="73.78" x2="164.45" y2="207.16" gradientUnits="userSpaceOnUse"><stop offset="0" stop-color="#ff7623"/><stop offset="0.15" stop-color="#ff7827"/><stop offset="0.29" stop-color="#fe7f32"/><stop offset="0.43" stop-color="#fd8a45"/><stop offset="0.56" stop-color="#fb9b60"/><stop offset="0.69" stop-color="#f9af82"/><stop offset="0.82" stop-color="#f6c9ad"/><stop offset="0.95" stop-color="#f3e6de"/><stop offset="1" stop-color="#f2f2f2"/></linearGradient></defs><title>wink</title><g id="Ebene_3" data-name="Ebene 3"><ellipse class="cls-1" cx="97.76" cy="140.47" rx="94.26" ry="94.36"/><path d="M72.71,1.53,183.93,28l53.36,105.55-4.38-1.47-2.57,52.14L216,182.43l11.85-52.08-22.63-8-9.66,12.51s-58-14.38-117.07-89.41L89.19,31.27Z" transform="translate(-0.36 -1.53)"/><circle class="cls-2" cx="128.69" cy="109.16" r="12.96"/><path class="cls-3" d="M57,175.49c6.89,25.51,25.52,22.27,46.17,21.87,26.52-.52,42.53-19,46.17-46.17" transform="translate(-0.36 -1.53)"/><path class="cls-4" d="M49.67,126.08c-.81-.66,4-16.65,21.06-19.44,14.45-2.37,17.44,11.24,17,12.15s-3.42-5.53-17-3.24C54.19,118.33,50.44,126.7,49.67,126.08Z" transform="translate(-0.36 -1.53)"/></g></svg>