<svg id="Ebene_3" data-name="Ebene 3" xmlns="http://www.w3.org/2000/svg" xmlns:xlink="http://www.w3.org/1999/xlink" viewBox="0 0 226.03 227.18"><defs><style>.cls-1{stroke:#000;stroke-miterlimit:10;stroke-width:0.5px;}.cls-2{fill:url(#Unbenannter_Verlauf_10);}</style><linearGradient id="Unbenannter_Verlauf_10" x1="7.82" y1="118.78" x2="233.85" y2="118.78" gradientUnits="userSpaceOnUse"><stop offset="0.01" stop-color="aqua" stop-opacity="0.9"/><stop offset="1" stop-color="#ed1e79" stop-opacity="0.9"/></linearGradient></defs><title>f_yes</title><g id="Layer_1" data-name="Layer 1"><path class="cls-1" d="M218.63,199.86l-31.77,3c-14.58,13.93-30.42,18.13-47.44,24.59-5.36.37-9.37,3.56-11.92,3.56a111.74,111.74,0,0,1-24.7-3.21L95.17,231H86q-31.29,0-31.32-18.59c0-.72-5.86-1.75-5.58-3.21-15.31-1-17-7.1-17-18.17a40.07,40.07,0,0,1,.42-4.94c-5.66-1.33-10-3.45-12.84-6.41a15,15,0,0,1-4.37-11.11c0-3.61,1.54-7.55,4.65-11.65Q8.53,146.69,8.5,134.12q0-14.5,19-23.36T77.67,102H83A83.52,83.52,0,0,0,71.28,71.16l-3.42-4.94c-7.35-11.67-11-20.71-11-27,0-17.56,9.1-28.56,31.42-32.91L94.4,11l12.68,33.3,39.4,34.82c2.69,2.61,7.32,7.62,14,15l5.94,6.52c6.39,7.2,10.91,11.6,13.51,13.16s6.84,2.42,12.65,2.42h24.93c7.63,13.51,11.47,27.46,11.47,41.7C229,171.83,225.52,185.86,218.63,199.86Zm-7.07-9.18c4.46-10.74,6.62-21,6.62-30.79a84.7,84.7,0,0,0-7.26-34.1c-17.86,0-29-.91-33.56-2.66s-11.41-8-20.5-18.59c-3.62-4.1-9.14-10-16.35-17.45L97.72,49.24,87.22,16.46C73,20.51,67.86,28.06,67.86,39.17c0,5.73,2.38,12,7.26,18.71l2.75,3.91q16.7,23,16.66,43.89l-5.78,2-1.71,3c-22.52,0-39.54,1.86-50.86,5.54S19.1,125.55,19.1,133.09c0,6.83,3,12.6,8.86,17.31s13.09,7.08,21.59,7.08l13,.12,38.58-14.44c-5.83-7.29-13.66-11-23.47-11a46.79,46.79,0,0,0-9.76,1.37c-4,1-8.64,2.42-14.08,4.29l-10,.37-10-8.88,17.27-.19a99.32,99.32,0,0,1,13.66-3.87A56.51,56.51,0,0,1,76,124c18.17,0,28.46,4.66,36.82,20l-4.26,5.84c8.94,3.63,12.84,10,17.69,19.08l-5.36,3c6.56,3.45,9.59,6.29,15.11,14.49l-10.15,8.15c7.18,4.4,10,7.55,14.44,15.59l-23.16,12.71a66,66,0,0,0,10.82,1.09l8.27-3.19c18.9-9.06,34.24-14.1,46-27.08ZM114.49,165a33,33,0,0,0-17.86-10.58L64.89,166.29H53.62c-10.68,0-18.76-1.26-24.28-3.75-1.79,2.12-2.75,4.17-2.75,6,0,3.63,2.19,6.34,6.48,8.22s10.82,2.7,19.46,2.7h22.6Zm8.94,20.69c-.64-.72-1.23-1.33-1.65-1.79a37.84,37.84,0,0,0-12.14-7.73L77,188.21,42.57,188l-.64,2.28c0,6.94,8.27,10.46,24.93,10.46h16Zm4.51,23.85c-1-1-1.74-1.86-2.33-2.47a43.37,43.37,0,0,0-10.23-8.64l-30.45,11.3H59.31v1.07c0,7.92,12.9,11.83,26.72,11.83h7Z" transform="translate(-7.82 -5.19)"/></g><g id="Layer_1-2" data-name="Layer 1"><path class="cls-1" d="M220.63,199.86l-31.77,3c-14.58,13.93-30.42,18.13-47.44,24.59-5.36.37-9.37,3.56-11.92,3.56a111.74,111.74,0,0,1-24.7-3.21L97.17,231H88q-31.29,0-31.32-18.59c0-.72-5.86-1.75-5.58-3.21-15.31-1-17-7.1-17-18.17a40.07,40.07,0,0,1,.42-4.94c-5.66-1.33-10-3.45-12.84-6.41a15,15,0,0,1-4.37-11.11c0-3.61,1.54-7.55,4.65-11.65q-11.44-10.24-11.47-22.8,0-14.5,19-23.36T79.67,102H85A83.52,83.52,0,0,0,73.28,71.16l-3.42-4.94c-7.35-11.67-11-20.71-11-27,0-17.56,11.1-28.56,33.42-32.91L98.4,11l10.68,33.3,39.4,34.82c2.69,2.61,7.32,7.62,14,15l5.94,6.52c6.39,7.2,10.91,11.6,13.51,13.16s6.84,2.42,12.65,2.42h24.93c7.63,13.51,11.47,27.46,11.47,41.7C231,171.83,227.52,185.86,220.63,199.86Zm-7.07-9.18c4.46-10.74,6.62-21,6.62-30.79a84.7,84.7,0,0,0-7.26-34.1c-17.86,0-29-.91-33.56-2.66s-11.41-8-20.5-18.59c-3.62-4.1-9.14-10-16.35-17.45L99.72,49.24l-8.5-32.77Q69.86,22.54,69.86,39.17c0,5.73,2.38,12,7.26,18.71l2.75,3.91q16.7,23,16.66,43.89l-5.78,2-1.71,3c-22.52,0-39.54,1.86-50.86,5.54S21.1,125.55,21.1,133.09c0,6.83,3,12.6,8.86,17.31s13.09,7.08,21.59,7.08l13,.12,38.58-14.44c-5.83-7.29-13.66-11-23.47-11a46.79,46.79,0,0,0-9.76,1.37c-4,1-8.64,2.42-14.08,4.29l-10,.37-10-8.88,17.27-.19a99.32,99.32,0,0,1,13.66-3.87A56.51,56.51,0,0,1,78,124c18.17,0,28.46,4.66,36.82,20l-4.26,5.84c8.94,3.63,12.84,10,17.69,19.08l-5.36,3c6.56,3.45,9.59,6.29,15.11,14.49l-10.15,8.15c7.18,4.4,10,7.55,14.44,15.59l-23.16,12.71a66,66,0,0,0,10.82,1.09l8.27-3.19c18.9-9.06,34.24-14.1,46-27.08ZM116.49,165a33,33,0,0,0-17.86-10.58L66.89,166.29H55.62c-10.68,0-18.76-1.26-24.28-3.75-1.79,2.12-2.75,4.17-2.75,6,0,3.63,2.19,6.34,6.48,8.22s10.82,2.7,19.46,2.7h22.6Zm8.94,20.69c-.64-.72-1.23-1.33-1.65-1.79a37.84,37.84,0,0,0-12.14-7.73L79,188.21,44.57,188l-.64,2.28c0,6.94,8.27,10.46,24.93,10.46h16Zm4.51,23.85c-1-1-1.74-1.86-2.33-2.47a43.37,43.37,0,0,0-10.23-8.64l-30.45,11.3H61.31v1.07c0,7.92,12.9,11.83,26.72,11.83h7Z" transform="translate(-7.82 -5.19)"/></g><path class="cls-2" d="M92.5,5.5C79,3,61,16,56.5,31.5,54.85,37.18,55.26,46.84,63,60,73,77,73,71,82,98c1,3,0,1-15.5,2.5C49.55,102.14,18,108,10,125c-4.23,9-3,22,10,32,0,0-10.5,9.5-3,21,8.19,12.56,15,9,15,9-.5,1.5-1.26,12.81,2,17,7,9,14.43,3.23,19,10,3.18,4.71,2,6.87,7,11,11,9,42,8,46,4,.71-.71,6.06,4.81,26,3,11-1,47.49-16.49,59-28,1-1,30.5,2.5,33-6,7.73-26.29,19-39-3-82-2.08-4.07-12.45-.74-26-1-8.06-.15-16-5-17-6-6-6-9.65-11.26-12-14-12-14-13.63-11.31-29-28-13.44-14.59-12.93-10.54-20-18C99,30,108.28,14.38,96.5,9.5,95.89,9.25,94.42,5.86,92.5,5.5Z" transform="translate(-7.82 -5.19)"/></svg>