<svg xmlns="http://www.w3.org/2000/svg" viewBox="0 0 210.5 240.5"><defs><style>.cls-1,.cls-14{stroke:#000;}.cls-1,.cls-14,.cls-2{stroke-miterlimit:10;}.cls-2{fill:#ffff71;stroke:#ffff71;}.cls-3{fill:#dedf59;}.cls-4{fill:#a6a716;}.cls-5{fill:#adae20;}.cls-6{fill:#bdbe35;}.cls-7{fill:#993;}.cls-14,.cls-8{fill:#cc3;}.cls-9{fill:#cc6;}.cls-10{fill:#d6d850;}.cls-11{fill:#a09b38;}.cls-12{fill:#ede66b;}.cls-13{fill:#777336;}</style></defs><title>martin</title><g id="Hilfslinien"><rect y="30" width="210" height="15"/><rect x="15.5" y="15" width="180" height="15"/><rect x="30.5" width="150" height="15"/><rect x="0.5" y="45.95" width="30" height="53.11"/><rect x="179.75" y="46.11" width="30.5" height="52.5"/><rect class="cls-1" x="0.5" y="90.5" width="14.5" height="66.6"/><rect class="cls-1" x="194.75" y="90.25" width="15.25" height="66.85"/><rect class="cls-1" x="53.93" y="225" width="103.4" height="15"/><rect x="30.5" y="210.5" width="149.25" height="14.5"/><rect class="cls-1" x="15" y="157.1" width="15.5" height="53.4"/><rect x="180" y="157.1" width="15" height="53.15"/><rect x="52.5" y="157.92" width="15.5" height="53.4"/><rect x="142.25" y="157.92" width="15.5" height="53.4"/><rect x="82.73" y="173.15" width="45.09" height="21.85"/><rect x="68" y="143.79" width="14.73" height="29.37"/><rect x="127.64" y="143.79" width="14.73" height="27.99"/><rect class="cls-1" x="68" y="143.05" width="74.36" height="13.89"/><rect class="cls-1" x="53.93" y="82" width="28.8" height="30.5"/><rect class="cls-1" x="127.64" y="82" width="28.73" height="30.5"/><rect class="cls-2" x="30.5" y="45.5" width="74.31" height="36.5"/><rect class="cls-2" x="30.5" y="82" width="23.43" height="75.1"/><rect class="cls-3" x="30.5" y="156.92" width="22" height="16.23"/><rect class="cls-3" x="15.25" y="143.05" width="15.25" height="14.05"/><rect class="cls-4" x="157.75" y="170.92" width="22" height="40.41"/><rect class="cls-4" x="127.82" y="170.92" width="15.36" height="40.41"/><rect class="cls-5" x="97.5" y="195.25" width="30" height="15.25"/></g><g id="Ebene_3" data-name="Ebene 3"><rect class="cls-6" x="112.59" y="157.92" width="15.23" height="15.23"/><rect class="cls-6" x="157.75" y="157.78" width="22" height="13.13"/><rect class="cls-7" x="180.5" y="120.5" width="14.25" height="36.6"/><rect class="cls-8" x="179.75" y="98.61" width="15" height="21.89"/><rect class="cls-8" x="157.75" y="112.5" width="22" height="45.42"/><rect class="cls-9" x="157.75" y="45" width="22" height="67.5"/><rect class="cls-10" x="142.36" y="142.54" width="15.39" height="15.39"/><rect class="cls-10" x="120.5" y="45" width="15" height="15.15"/><rect class="cls-10" x="105.5" y="45" width="15" height="15.15"/><rect class="cls-10" x="105.5" y="60" width="14" height="15.15"/><rect class="cls-10" x="135.5" y="45" width="14" height="15.15"/><rect class="cls-10" x="120.5" y="60" width="15" height="15.15"/><rect class="cls-10" x="105.5" y="60" width="15" height="15.15"/><rect class="cls-10" x="135.5" y="60" width="14" height="15.15"/><rect class="cls-10" x="146.5" y="60" width="14" height="15.15"/><rect class="cls-10" x="141.5" y="113" width="16" height="15.15"/><rect class="cls-10" x="14.5" y="99" width="16" height="15.15"/><rect class="cls-10" x="14.5" y="113" width="16" height="15.15"/><rect class="cls-10" x="14.5" y="128" width="16" height="15.15"/><rect class="cls-10" x="52.5" y="142" width="16" height="15.15"/><rect class="cls-10" x="30.5" y="170" width="16" height="15.15"/><rect class="cls-10" x="30.5" y="184" width="16" height="15.15"/><rect class="cls-10" x="29.5" y="198" width="16" height="15.15"/><rect class="cls-10" x="67.5" y="195" width="16" height="15.15"/><rect class="cls-10" x="82.5" y="195" width="16" height="15.15"/><rect class="cls-10" x="66.5" y="184" width="16" height="15.15"/><rect class="cls-10" x="66.5" y="173" width="16" height="15.15"/><rect class="cls-11" x="142.5" y="128" width="15" height="15.15"/><rect class="cls-12" x="98.5" y="83" width="15" height="15.15"/><rect class="cls-10" x="105.5" y="75" width="15" height="15.15"/><rect class="cls-12" x="83.5" y="83" width="15" height="15.15"/><rect class="cls-12" x="113.5" y="83" width="14" height="15.15"/><rect class="cls-10" x="97.5" y="98" width="15" height="15.15"/><rect class="cls-13" x="82.5" y="98" width="15" height="15.15"/><rect class="cls-13" x="112.5" y="98" width="14" height="15.15"/><rect class="cls-12" x="69.5" y="113" width="15" height="15.15"/><rect class="cls-10" x="54.5" y="113" width="15" height="15.15"/><rect class="cls-12" x="84.5" y="113" width="14" height="15.15"/><rect class="cls-10" x="112.5" y="113" width="15" height="15.15"/><rect class="cls-10" x="97.5" y="113" width="15" height="15.15"/><rect class="cls-12" x="127.5" y="113" width="14" height="15.15"/><rect class="cls-10" x="69.5" y="127" width="15" height="15.15"/><rect class="cls-12" x="54.5" y="127" width="15" height="15.15"/><rect class="cls-10" x="84.5" y="127" width="14" height="15.15"/><rect class="cls-10" x="113.5" y="127" width="15" height="15.15"/><rect class="cls-10" x="98.5" y="127" width="15" height="15.15"/><rect class="cls-10" x="128.5" y="127" width="14" height="15.15"/><rect class="cls-10" x="149.5" y="45" width="14" height="15.15"/><rect class="cls-10" x="97.5" y="158.07" width="15.09" height="15.09"/><rect class="cls-14" x="82.73" y="158.07" width="14.77" height="15.09"/></g></svg>