<?xml version="1.0" encoding="utf-8"?>
<!-- Generator: Adobe Illustrator 19.2.1, SVG Export Plug-In . SVG Version: 6.00 Build 0)  -->
<svg version="1.1" xmlns="http://www.w3.org/2000/svg" xmlns:xlink="http://www.w3.org/1999/xlink" x="0px" y="0px"
	 viewBox="0 0 240 240" style="enable-background:new 0 0 240 240;" xml:space="preserve">
<style type="text/css">
	.st0{display:none;}
	.st1{stroke:#000000;stroke-miterlimit:10;}
	.st2{fill:#FFFF71;stroke:#FFFF71;stroke-miterlimit:10;}
	.st3{fill:#DEDF59;}
	.st4{fill:#A6A716;}
	.st5{fill:#ADAE20;}
	.st6{display:none;fill:url(#SVGID_1_);}
	.st7{display:none;fill:none;stroke:#333333;stroke-width:7;stroke-miterlimit:10;}
	.st8{display:none;fill:#333333;}
	.st9{fill:#BDBE35;}
	.st10{fill:#999933;}
	.st11{fill:#CCCC33;}
	.st12{fill:#CCCC66;}
	.st13{fill:#D6D850;}
	.st14{fill:#CCCC33;stroke:#000000;stroke-miterlimit:10;}
</style>
<g id="Ebene_1" class="st0">
	
		<image style="display:inline;overflow:visible;" width="15" height="15" xlink:href="7F72A1EAA279464A.jpg"  transform="matrix(16 0 0 16 0 0)">
	</image>
</g>
<g id="Hilfslinien">
	<rect x="14.5" y="30" width="210" height="15"/>
	<rect x="30" y="15" width="180" height="15"/>
	<rect x="45" width="150" height="15"/>
	<rect x="15" y="45.9" width="30" height="53.1"/>
	<rect x="194.2" y="46.1" width="30.5" height="52.5"/>
	<rect x="15" y="90.5" class="st1" width="14.5" height="66.6"/>
	<rect x="209.2" y="90.2" class="st1" width="15.2" height="66.8"/>
	<rect x="68.4" y="225" class="st1" width="103.4" height="15"/>
	<rect x="45" y="210.5" width="149.2" height="14.5"/>
	<rect x="29.5" y="157.1" class="st1" width="15.5" height="53.4"/>
	<rect x="194.5" y="157.1" width="15" height="53.2"/>
	<rect x="67" y="157.9" width="15.5" height="53.4"/>
	<rect x="156.8" y="157.9" width="15.5" height="53.4"/>
	<rect x="97.2" y="173.2" width="45.1" height="21.8"/>
	<rect x="82.5" y="143.8" width="14.7" height="29.4"/>
	<rect x="142.1" y="143.8" width="14.7" height="28"/>
	<rect x="82.5" y="143.1" class="st1" width="74.4" height="13.9"/>
	<rect x="68.4" y="82" class="st1" width="28.8" height="30.5"/>
	<rect x="142.1" y="82" class="st1" width="28.7" height="30.5"/>
	<rect x="45" y="45.5" class="st2" width="74.3" height="36.5"/>
	<rect x="45" y="82" class="st2" width="23.4" height="75.1"/>
	<rect x="45" y="156.9" class="st3" width="22" height="16.2"/>
	<rect x="29.8" y="143.1" class="st3" width="15.2" height="14"/>
	<rect x="172.2" y="170.9" class="st4" width="22" height="40.4"/>
	<rect x="142.3" y="170.9" class="st4" width="15.4" height="40.4"/>
	<rect x="112" y="195.2" class="st5" width="30" height="15.2"/>
</g>
<g id="Ebene_3">
	<linearGradient id="SVGID_1_" gradientUnits="userSpaceOnUse" x1="43.0718" y1="43.0718" x2="197.9282" y2="197.9282">
		<stop  offset="0" style="stop-color:#FFFF00"/>
		<stop  offset="0.4129" style="stop-color:#FDFD01;stop-opacity:0.8761"/>
		<stop  offset="0.5616" style="stop-color:#F6F606;stop-opacity:0.8315"/>
		<stop  offset="0.6676" style="stop-color:#EBEB0E;stop-opacity:0.7997"/>
		<stop  offset="0.7534" style="stop-color:#DADA19;stop-opacity:0.774"/>
		<stop  offset="0.8268" style="stop-color:#C4C428;stop-opacity:0.752"/>
		<stop  offset="0.8918" style="stop-color:#A8A83A;stop-opacity:0.7325"/>
		<stop  offset="0.9492" style="stop-color:#89894F;stop-opacity:0.7153"/>
		<stop  offset="1" style="stop-color:#666666;stop-opacity:0.7"/>
	</linearGradient>
	<circle class="st6" cx="120.5" cy="120.5" r="109.5"/>
	<path class="st7" d="M59,129c4.3,32.5,28.3,57,61,57s56.7-24.5,61-57"/>
	<circle class="st8" cx="80" cy="96" r="16"/>
	<circle class="st8" cx="160" cy="96" r="16"/>
	<rect x="127.1" y="157.9" class="st9" width="15.2" height="15.2"/>
	<rect x="172.2" y="157.8" class="st9" width="22" height="13.1"/>
	<rect x="195" y="120.5" class="st10" width="14.2" height="36.6"/>
	<rect x="194.2" y="98.6" class="st11" width="15" height="21.9"/>
	<rect x="172.2" y="112.5" class="st11" width="22" height="45.4"/>
	<rect x="172.2" y="45" class="st12" width="22" height="67.5"/>
	<rect x="156.9" y="142.5" class="st13" width="15.4" height="15.4"/>
	<rect x="112" y="158.1" class="st13" width="15.1" height="15.1"/>
	<rect x="97.2" y="158.1" class="st14" width="14.8" height="15.1"/>
</g>
</svg>
