<svg xmlns="http://www.w3.org/2000/svg" xmlns:xlink="http://www.w3.org/1999/xlink" viewBox="0 0 226.03 227.18"><defs><style>.cls-1{stroke:#000;stroke-miterlimit:10;stroke-width:0.5px;}.cls-2{fill:url(#Unbenannter_Verlauf_19);}</style><linearGradient id="Unbenannter_Verlauf_19" x1="10.82" y1="120.78" x2="236.85" y2="120.78" gradientTransform="matrix(1, 0, 0, -1, 0, 241.56)" gradientUnits="userSpaceOnUse"><stop offset="0" stop-color="#e6c1a8" stop-opacity="0.9"/><stop offset="1" stop-color="#f7ac4b" stop-opacity="0.9"/></linearGradient></defs><title>no</title><g id="Ebene_3" data-name="Ebene 3"><g id="Layer_1" data-name="Layer 1"><path class="cls-1" d="M232,81.61c0,14.23-3.84,28.18-11.47,41.7H195.61c-5.81,0-10,.79-12.65,2.42s-7.12,6-13.52,13.16l-5.94,6.52c-6.7,7.41-11.33,12.42-14,15l-39.39,34.82L99.4,228.56l-6.17,4.74C70.91,228.94,59.81,218,59.81,200.39c0-6.34,3.7-15.38,11-27l3.42-4.94A83.54,83.54,0,0,0,86,137.61h-5.3q-31.29,0-50.22-8.81T11.5,105.44Q11.5,92.85,23,82.63c-3.11-4.1-4.66-8-4.66-11.64a15,15,0,0,1,4.38-11.11c2.89-3,7.18-5.08,12.84-6.41a40.12,40.12,0,0,1-.42-4.94c0-11.06,1.71-17.14,17-18.17-.28-1.47,5.58-2.49,5.58-3.21Q57.71,8.59,89,8.56h9.14l7.63,3.21a111.65,111.65,0,0,1,24.7-3.21c2.55,0,6.56,3.18,11.91,3.56,17,6.45,32.87,10.65,47.45,24.58l31.77,3C228.52,53.7,232,67.73,232,81.61ZM185.23,45.88c-11.78-13-27.11-18-46-27.08L131,15.62a66.16,66.16,0,0,0-10.83,1.09l23.16,12.71c-4.43,8-7.26,11.19-14.44,15.59L139,53.16c-5.52,8.2-8.55,11-15.11,14.5l5.36,3c-4.85,9.07-8.75,15.45-17.7,19.08l4.27,5.84c-8.36,15.33-18.65,20-36.82,20a56.32,56.32,0,0,1-11.27-1.25,100.25,100.25,0,0,1-13.66-3.87l-17.27-.19,10-8.87,10,.37c5.44,1.86,10.09,3.31,14.07,4.29a47.16,47.16,0,0,0,9.76,1.37c9.82,0,17.64-3.68,23.47-11L65.56,82l-13,.11Q39.8,82.07,31,89.16c-5.89,4.7-8.86,10.48-8.86,17.3,0,7.55,5.66,13.16,17.07,16.91s28.35,5.55,50.87,5.55l1.71,3,5.77,2q0,20.9-16.65,43.89l-2.75,3.91c-4.88,6.71-7.26,13-7.26,18.71C70.86,211.5,78,219,92.22,223.1l8.5-32.78,42.79-37.85c7.2-7.48,12.73-13.35,16.35-17.45,9.08-10.62,15.92-16.84,20.49-18.59s15.7-2.65,33.56-2.65a84.69,84.69,0,0,0,7.27-34.1c0-9.79-2.16-20.06-6.62-30.8ZM78.12,60.06H55.52q-12.94,0-19.46,2.7c-4.29,1.89-6.47,4.59-6.47,8.23,0,1.86.95,3.91,2.74,6,5.53-2.49,13.6-3.75,24.29-3.75H67.89L99.63,85.1a33,33,0,0,0,17.86-10.57Zm7.71-21.27h-16c-16.66,0-24.93,3.52-24.93,10.46l.65,2.29L80,51.35l32.64,12a37.83,37.83,0,0,0,12.14-7.73c.42-.47,1-1.08,1.65-1.8ZM96,16.9H89c-13.83,0-26.72,3.91-26.72,11.83V29.8H87.93l30.46,11.3a43.47,43.47,0,0,0,10.23-8.64c.59-.61,1.32-1.45,2.33-2.47Z" transform="translate(-10.82 -7.19)"/></g><path class="cls-2" d="M97.5,234.06c-13.5,2.5-33.5-10.5-38-26-1.65-5.68-1.24-15.35,6.5-28.5,10-17,10-11,19-38,1-3,0-1-15.5-2.5-17-1.64-48.5-7.5-56.5-24.5-4.23-9-3-22,10-32,0,0-10.5-9.5-3-21,8.19-12.57,15-9,15-9-.5-1.5-1.26-12.81,2-17,7-9,14.43-3.23,19-10,3.18-4.71,2-6.87,7-11,11-9,42-8,46-4,.71.71,6.06-4.82,26-3,11,1,47.49,16.49,59,28,1,1,30.5-2.5,33,6,7.73,26.28,19,39-3,82-2.08,4.07-12.45.74-26,1-8.06.15-16,5-17,6-6,6-9.65,11.26-12,14-12,14-13.63,11.31-29,28-13.44,14.59-12.93,10.53-20,18-18,19-6.72,34.62-18.5,39.5C100.89,230.31,99.42,233.7,97.5,234.06Z" transform="translate(-10.82 -7.19)"/></g></svg>